<svg id="Capa_1" enable-background="new 0 0 509.007 509.007" height="512" viewBox="0 0 509.007 509.007" width="512" xmlns="http://www.w3.org/2000/svg"><g><g><g><path d="m441.566 501.507h-374.126c-6.616 0-11.98-5.363-11.98-11.98v-215.266c0-73.163 59.311-132.474 132.474-132.474h133.137c73.163 0 132.474 59.311 132.474 132.474v215.266c0 6.616-5.363 11.98-11.979 11.98z" fill="#c8c3ca"/></g></g><g><g><path d="m319.508 141.787h-30.354c74.027 0 134.037 60.01 134.037 134.037v213.562c0 6.694-5.427 12.121-12.121 12.121h30.354c6.694 0 12.121-5.427 12.121-12.121v-213.562c0-74.027-60.01-134.037-134.037-134.037z" fill="#b1abb4"/></g></g><g><g><path d="m375.983 500.915h-241.049c-4.651 0-8.422-3.771-8.422-8.422v-79.17c0-50.135 40.643-90.778 90.778-90.778h76.336c50.135 0 90.778 40.643 90.778 90.778v79.17c0 4.652-3.77 8.422-8.421 8.422z" fill="#f8e883"/></g></g><g><g><path d="m292.555 322.546h-30.354c50.727 0 91.849 41.122 91.849 91.849v77.999c0 4.706-3.815 8.521-8.521 8.521h30.354c4.706 0 8.521-3.815 8.521-8.521v-77.999c0-50.727-41.122-91.849-91.849-91.849z" fill="#f5de46"/></g></g><g><g><path d="m229.594 500.915h57.346l75-146.705c-11.29-13.005-26.177-22.798-43.111-27.845z" fill="#b1abb4"/></g></g><g><g><path d="m257.866 361.354h-1.534c-18.112 0-32.794-14.682-32.794-32.794v-87.929h67.122v87.929c.001 18.112-14.682 32.794-32.794 32.794z" fill="#ffc0ad"/></g></g><g><g><ellipse cx="143.359" cy="174.009" fill="#ffcdbe" rx="35.593" ry="36.089"/></g></g><g><g><ellipse cx="370.84" cy="174.009" fill="#ffcdbe" rx="35.593" ry="36.089"/></g></g><g><g><path d="m275.856 298.009h-37.513c-52.458 0-94.984-42.526-94.984-94.984v-83.111c0-62.084 50.33-112.414 112.414-112.414h2.653c62.085 0 112.414 50.33 112.414 112.414v83.111c0 52.459-42.526 94.984-94.984 94.984z" fill="#ffcdbe"/></g></g><g><g><path d="m257.1 7.5c-4.744 0-9.418.295-14.009.859 56.207 6.904 99.731 54.808 99.731 112.881v80.664c0 53.077-43.028 96.105-96.105 96.105h28.018c53.077 0 96.105-43.028 96.105-96.105v-80.664c0-62.816-50.923-113.74-113.74-113.74z" fill="#ffc0ad"/></g></g><g><g><path d="m143.359 187.632v12.827c0 53.876 43.028 97.551 96.105 97.551h35.272c53.077 0 96.105-43.675 96.105-97.551v-12.827z" fill="#ffcdbe"/></g></g><g><g><path d="m341.806 160.302v3.857c0 13.867-11.242 25.109-25.109 25.109h-119.195c-13.867 0-25.109-11.242-25.109-25.109v-3.857c0-12.322-9.989-22.31-22.31-22.31h-6.724v51.276 12.14.497c0 53.077 43.028 96.105 96.105 96.105h35.272c53.077 0 96.105-43.028 96.105-96.105v-.497-12.14-51.276h-6.724c-12.323 0-22.311 9.988-22.311 22.31z" fill="#dbb72b"/></g></g><g><g><path d="m364.116 137.992c-9.997 0-18.458 6.576-21.294 15.638v35.638 12.14.497c0 53.077-43.028 96.105-96.105 96.105h28.018c53.077 0 96.105-43.028 96.105-96.105v-.497-12.14-51.276z" fill="#caa828"/></g></g><g><g><path d="m117.173 459.986c-4.899 13.071-8.023 27.009-9.079 41.521h41.755c5.522-54.544 51.579-97.112 107.579-97.112s102.057 42.568 107.579 97.112h41.754c-5.643-77.551-70.343-138.716-149.334-138.716-30.553 0-58.969 9.151-82.656 24.862" fill="#8c818f"/></g></g><g><g><path d="m174.773 387.653c-26.092 17.306-46.446 42.572-57.599 72.333" fill="#8c818f"/></g></g><g><g><path d="m189.041 445.952-15.415 16.898c-12.41 13.604-33.497 14.572-47.101 2.162l-11.966-10.916c-5.59-5.099-5.987-13.764-.889-19.353l41.889-45.92c5.099-5.59 13.764-5.988 19.354-.888l11.966 10.916c13.604 12.409 14.572 33.497 2.162 47.101z" fill="#ffcdbe"/></g></g><g><g><path d="m325.815 445.952 15.415 16.898c12.409 13.604 33.497 14.572 47.101 2.163l11.966-10.916c5.59-5.099 5.987-13.764.889-19.353l-41.889-45.92c-5.099-5.59-13.764-5.987-19.353-.888l-11.966 10.916c-13.604 12.408-14.572 33.496-2.163 47.1z" fill="#ffcdbe"/></g></g><g><path d="m415.07 171.417c-.403-.369-.837-.683-1.291-.948-1.586-19.848-16.366-35.973-35.439-39.375v-9.853c0-66.853-54.388-121.241-121.24-121.241-33.724 0-65.047 13.514-88.2 38.054-2.843 3.013-2.705 7.759.308 10.602 3.012 2.842 7.759 2.705 10.602-.308 20.29-21.505 47.738-33.348 77.29-33.348 58.581 0 106.24 47.659 106.24 106.241v9.271c-16.079.414-29.034 13.614-29.034 29.791v3.857c0 9.709-7.899 17.609-17.608 17.609h-119.196c-9.709 0-17.608-7.899-17.608-17.609v-3.857c0-16.177-12.955-29.376-29.034-29.791v-9.271c0-16.737 3.777-32.75 11.229-47.593 1.858-3.702.363-8.21-3.339-10.068-3.699-1.858-8.208-.363-10.067 3.338-8.508 16.95-12.822 35.227-12.822 54.322v9.853c-18.965 3.383-33.688 19.343-35.414 39.035-.533.26-1.046.579-1.521.976-32.388 26.998-50.963 66.642-50.963 108.766v81.475c0 4.142 3.357 7.5 7.5 7.5s7.5-3.358 7.5-7.5v-81.475c0-34.979 14.336-68.041 39.581-91.915 5.105 15.243 18.324 26.732 34.438 29.161 6.237 42.201 38.008 76.196 79.059 85.721v12.237c-53.712 1.239-97.026 45.315-97.026 99.32v3.346c0 .006.001.011.001.017l-10.884 11.931c-7.839 8.594-7.26 21.935 1.254 29.827-3.99 11.144-6.705 22.706-8.089 34.491h-33.715c-2.548 0-4.621-2.073-4.621-4.621v-101.732c0-4.142-3.357-7.5-7.5-7.5s-7.5 3.358-7.5 7.5v101.733c0 10.819 8.802 19.621 19.621 19.621h373.843c10.819 0 19.621-8.802 19.621-19.621v-213.562c0-39.595-16.758-77.651-45.976-104.407zm-16.136 2.592c0 13.121-8.734 24.199-20.594 27.547v-55.094c11.86 3.349 20.594 14.426 20.594 27.547zm-283.668 0c0-13.121 8.734-24.198 20.594-27.547v55.094c-11.861-3.348-20.594-14.426-20.594-27.547zm35.593 27.896v-56.374c7.805.408 14.034 6.867 14.034 14.771v3.857c0 17.98 14.628 32.609 32.608 32.609h119.195c17.98 0 32.608-14.628 32.608-32.609v-3.857c0-7.904 6.229-14.363 14.034-14.771v56.374c0 48.857-39.748 88.605-88.605 88.605h-35.271c-48.855 0-88.603-39.748-88.603-88.605zm244.384 246.651-11.967 10.916c-5.1 4.652-11.704 7.036-18.6 6.723-6.895-.316-13.254-3.299-17.905-8.399l-15.415-16.898c-4.652-5.099-7.04-11.704-6.723-18.6.316-6.895 3.299-13.254 8.398-17.906l11.967-10.916c1.186-1.083 2.683-1.617 4.175-1.617 1.684 0 3.362.68 4.583 2.019l41.889 45.919c2.304 2.526 2.123 6.455-.402 8.759zm-232.691 30.367c6.299-2.206 11.991-5.949 16.615-11.018l15.415-16.898c6.231-6.831 9.88-15.374 10.546-24.454 15.722-9.585 33.768-14.658 52.3-14.658 3.028 0 6.042.15 9.038.418l-41.631 81.434.507.259h-66.836c.954-5.128 2.307-10.173 4.046-15.083zm94.877-108.632c24.829 0 48.968 6.422 70.334 18.604l-4.84 4.415c-5.203 4.746-9.001 10.62-11.182 17.117-16.655-8.871-35.274-13.531-54.313-13.531-19.049 0-37.659 4.659-54.314 13.531-2.181-6.497-5.979-12.37-11.182-17.116l-4.848-4.422c21.369-12.187 45.492-18.598 70.345-18.598zm24.549 44.632c9.751 2.445 19.102 6.354 27.749 11.625.242 3.297.877 6.522 1.888 9.622l-29.435 57.577.507.259h-41.139zm38.683 36.507 15.029 16.474c4.625 5.07 10.32 8.814 16.621 11.021 1.738 4.908 3.088 9.954 4.042 15.082h-57.458zm44.177-67.662c-2.025-2.219-4.42-3.899-7.003-5.051l5.317-10.401c5.151 7.864 9.023 16.632 11.322 26.015zm-23.727-5.291c-.303.124-.61.232-.908.371-10.125-6.282-20.86-11.366-32.027-15.17l14.368-28.104c11.525 4.4 21.842 11.253 30.313 19.925zm-47.633-19.002c-2.274-.533-4.558-1.027-6.857-1.458 7.111-6.93 11.54-16.601 11.54-27.291v-.473c3.269.216 6.485.621 9.643 1.2zm-54.014-53.965h35.271c2.837 0 5.646-.119 8.426-.344v25.561c0 12.753-10.375 23.128-23.128 23.128h-5.867c-12.753 0-23.128-10.375-23.128-23.128v-25.561c2.78.224 5.589.344 8.426.344zm-23.426 24.595v.621c0 10.744 4.474 20.457 11.647 27.394-18.751 3.591-36.692 10.577-53.041 20.723-3.068-1.436-6.456-2.122-9.937-1.964-5.656.26-10.874 2.707-14.69 6.89l-14.738 16.157c6.756-38.894 40.225-68.717 80.759-69.821zm-96.827 109.693 41.889-45.92c1.116-1.224 2.642-1.939 4.296-2.015.098-.004.194-.006.291-.006 1.548 0 3.02.569 4.171 1.62l11.967 10.916c5.1 4.652 8.082 11.011 8.398 17.906.317 6.895-2.07 13.501-6.723 18.6l-15.415 16.898c-4.651 5.099-11.011 8.082-17.905 8.398-6.91.315-13.501-2.071-18.6-6.723l-11.967-10.916c-1.224-1.116-1.939-2.641-2.015-4.295-.076-1.655.497-3.24 1.613-4.463zm-2.821 54.209c1.034-7.956 2.742-15.794 5.098-23.438 6.878 6.267 15.488 9.919 24.633 10.546-1.193 4.236-2.148 8.54-2.85 12.892zm255.195 0c-.701-4.351-1.653-8.656-2.845-12.892 9.145-.628 17.753-4.28 24.629-10.546 2.356 7.645 4.063 15.483 5.098 23.439h-26.882zm74.461-4.621c0 2.548-2.073 4.621-4.621 4.621h-27.863c-1.385-11.783-4.095-23.35-8.085-34.495 8.51-7.893 9.089-21.23 1.251-29.824l-14.835-16.263c-.505-52.458-41.868-95.318-93.731-98.218v-12.369c41.051-9.525 72.822-43.52 79.059-85.721 15.81-2.384 28.841-13.484 34.149-28.3 22.133 23.401 34.677 54.625 34.677 87.006v213.563z"/><path d="m228.969 148.588c0-4.142-3.357-7.5-7.5-7.5h-23.274c-4.143 0-7.5 3.358-7.5 7.5s3.357 7.5 7.5 7.5h12.255c-.574 1.209-.905 2.559-.905 3.99 0 5.094 4.073 9.224 9.097 9.224s9.097-4.129 9.097-9.224c0-2.056-.672-3.949-1.794-5.482 1.832-1.368 3.024-3.546 3.024-6.008z"/><path d="m323.505 148.588c0-4.142-3.358-7.5-7.5-7.5h-23.275c-4.143 0-7.5 3.358-7.5 7.5 0 2.462 1.191 4.64 3.024 6.008-1.122 1.534-1.793 3.426-1.793 5.482 0 5.094 4.072 9.224 9.097 9.224 5.024 0 9.097-4.129 9.097-9.224 0-1.431-.331-2.781-.905-3.99h12.255c4.142 0 7.5-3.358 7.5-7.5z"/><path d="m282.293 218.8c0-4.142-3.357-7.5-7.5-7.5s-7.5 3.358-7.5 7.5c0 5.757-4.572 10.44-10.193 10.44s-10.194-4.684-10.194-10.44c0-4.142-3.357-7.5-7.5-7.5s-7.5 3.358-7.5 7.5c0 14.028 11.302 25.44 25.194 25.44 13.891 0 25.193-11.412 25.193-25.44z"/></g></g></svg>