<svg id="Capa_1" enable-background="new 0 0 509.007 509.007" height="512" viewBox="0 0 509.007 509.007" width="512" xmlns="http://www.w3.org/2000/svg"><g><g><g><path d="m445.094 501.507h-381.181c-3.386 0-6.131-2.745-6.131-6.131v-216.921c0-73.163 59.311-132.474 132.474-132.474h128.495c73.163 0 132.474 59.311 132.474 132.474v216.921c0 3.386-2.745 6.131-6.131 6.131z" fill="#c8c3ca"/></g></g><g><g><path d="m318.751 145.981h-30c73.163 0 132.474 59.311 132.474 132.474v216.921c0 3.386-2.745 6.131-6.131 6.131h30c3.386 0 6.131-2.745 6.131-6.131v-216.921c0-73.163-59.311-132.474-132.474-132.474z" fill="#b1abb4"/></g></g><g><g><path d="m362.548 361.39h-212.414c-22.578 0-40.881-18.303-40.881-40.881v-188.387c0-68.54 55.563-124.103 124.103-124.103h45.969c68.54 0 124.103 55.563 124.103 124.104v188.387c.001 22.577-18.302 40.88-40.88 40.88z" fill="#ebb34c"/></g></g><g><g><path d="m279.326 8.019h-30c68.54 0 124.104 55.563 124.104 124.104v188.386c0 22.578-18.303 40.881-40.881 40.881h30c22.578 0 40.881-18.303 40.881-40.881v-188.387c-.001-68.54-55.564-124.103-124.104-124.103z" fill="#e9a52d"/></g></g><g><g><path d="m374.469 500.922h-238.042c-4.651 0-8.422-3.771-8.422-8.422v-77.09c0-50.135 40.643-90.778 90.778-90.778h73.329c50.135 0 90.778 40.643 90.778 90.778v77.09c0 4.652-3.77 8.422-8.421 8.422z" fill="#ad7fdd"/></g></g><g><g><path d="m292.112 324.633h-30c50.135 0 90.778 40.643 90.778 90.778v77.09c0 4.651-3.771 8.422-8.422 8.422h30c4.651 0 8.422-3.771 8.422-8.422v-77.09c0-50.136-40.643-90.778-90.778-90.778z" fill="#9d66d6"/></g></g><g><g><path d="m256.487 366.697h-1.455c-15.984 0-28.942-12.958-28.942-28.942v-77.782h59.339v77.782c.001 15.984-12.957 28.942-28.942 28.942z" fill="#ffc0ad"/></g></g><g><g><ellipse cx="133.018" cy="211.959" fill="#ffcdbe" rx="29.648" ry="29.648" transform="matrix(.707 -.707 .707 .707 -110.917 156.139)"/></g></g><g><g><ellipse cx="376.835" cy="211.959" fill="#ffcdbe" rx="29.648" ry="29.647" transform="matrix(.383 -.924 .924 .383 36.802 478.996)"/></g></g><g><g><path d="m148.738 96.457c-7.151 15.004-11.158 31.796-11.158 49.524v75.545c0 61.32 49.71 111.03 111.03 111.03h14.289c61.32 0 111.03-49.71 111.03-111.03v-75.545c0-17.729-4.007-34.52-11.158-49.524z" fill="#ffcdbe"/></g></g><g><g><path d="m362.771 96.457h-28.288c7.151 15.004 11.158 31.796 11.158 49.524v75.545c0 58.968-45.972 107.191-104.03 110.804 2.315.144 4.648.226 6.999.226h14.289c61.32 0 111.03-49.71 111.03-111.03v-75.545c0-17.728-4.007-34.52-11.158-49.524z" fill="#ffc0ad"/></g></g><g><g><ellipse cx="194.826" cy="250.679" fill="#e09380" rx="22.67" ry="14.012"/></g></g><g><g><ellipse cx="318.916" cy="250.679" fill="#e09380" rx="22.67" ry="14.012"/></g></g><g><g><path d="m298.504 366.697-68.619 134.225h56.677l74.125-144.994c-11.158-12.853-25.872-22.532-42.608-27.52z" fill="#c8c3ca"/></g></g><g><g><path d="m365.762 100.347c-14.775-14.598-28.89-29.859-43.053-45.057-1.883-2.021-3.242-4.398-3.843-6.88-5.039-4.63-9.929-9.442-14.598-14.528l-74.991-13.042-81.74 38.296-20.554 86.334h41.713 30.459c18.205 0 34.695-10.742 42.053-27.394l9.726-22.013 11.553 23.629c7.714 15.776 23.741 25.779 41.301 25.779h70.273l-1.886-26.621c-1.803-4.876-6.339-17.261-6.413-18.503z" fill="#ebb34c"/></g></g><g><g><path d="m152.07 501.507c5.458-53.908 50.978-95.979 106.325-95.979s100.867 42.072 106.325 95.979h41.267c-5.578-76.647-69.523-137.098-147.592-137.098-78.07 0-142.015 60.452-147.592 137.098z" fill="#8c818f"/></g></g><g><g><path d="m191.543 446.887-14.711 16.127c-12.41 13.604-33.498 14.572-47.101 2.162l-11.422-10.419c-5.59-5.099-5.987-13.764-.888-19.353l41.185-45.148c5.099-5.59 13.764-5.988 19.353-.889l11.422 10.419c13.604 12.409 14.572 33.497 2.162 47.101z" fill="#ffcdbe"/></g></g><g><g><path d="m325.246 446.887 14.711 16.127c12.41 13.604 33.497 14.572 47.101 2.162l11.422-10.419c5.59-5.099 5.987-13.764.888-19.353l-41.185-45.148c-5.099-5.59-13.764-5.988-19.353-.889l-11.422 10.419c-13.603 12.409-14.571 33.497-2.162 47.101z" fill="#ffcdbe"/></g></g><g><path d="m411.169 173.331v-48.811c0-68.66-55.859-124.52-124.521-124.52h-60.136c-39.17 0-75.276 17.883-99.061 49.064-2.513 3.293-1.879 8 1.414 10.512 3.294 2.512 8 1.878 10.512-1.415 20.925-27.429 52.684-43.161 87.136-43.161h60.136c60.39 0 109.521 49.131 109.521 109.521v55.732c-4.397-2.691-9.395-4.484-14.74-5.147v-22.137h.677c4.142 0 7.5-3.358 7.5-7.5s-3.358-7.5-7.5-7.5h-78.147c-14.693 0-28.357-8.529-34.813-21.728l-11.477-23.474c-1.281-2.622-4.011-4.263-6.883-4.204-2.916.057-5.536 1.799-6.715 4.468l-9.653 21.849c-6.197 14.027-20.109 23.09-35.444 23.09h-66.987c-4.143 0-7.5 3.358-7.5 7.5 0 3.482 2.376 6.401 5.593 7.246v22.223c-4.653.366-9.07 1.583-13.087 3.512v-53.93c0-14.372 2.738-28.338 8.138-41.511 1.571-3.832-.262-8.213-4.095-9.784-3.832-1.572-8.213.263-9.784 4.095-6.144 14.987-9.259 30.868-9.259 47.2v45.304c-32.9 26.732-51.711 66.144-51.711 108.631v216.92c0 7.516 6.115 13.631 13.631 13.631h381.181c7.516 0 13.631-6.115 13.631-13.631v-216.92c-.001-40.238-17.333-78.533-47.557-105.125zm-12.187 38.628c0 10.857-7.856 19.908-18.18 21.784.413-4.017.626-8.092.626-12.217v-31.233c10.015 2.122 17.554 11.029 17.554 21.666zm-150.842-91.018 3.138-7.101 4.396 8.989c8.953 18.309 27.907 30.14 48.287 30.14h62.469v68.558c0 57.087-46.443 103.53-103.529 103.53h-14.291c-57.087 0-103.53-46.443-103.53-103.53v-68.558h53.895c21.27 0 40.569-12.572 49.165-32.028zm145.286 328.275-11.422 10.419c-10.526 9.604-26.902 8.851-36.506-1.676l-14.711-16.127v.001c-9.603-10.527-8.851-26.904 1.676-36.506l11.422-10.419c2.525-2.304 6.456-2.123 8.758.402l41.185 45.148c2.304 2.526 2.123 6.455-.402 8.758zm-253.818-97.001c-13.315-3.747-22.615-16.039-22.615-29.891v-76.856c4.855 2.331 10.29 3.639 16.025 3.639v-1.311c7.219 31.782 27.244 58.753 54.344 75.176-17.573 6.387-32.835 17.407-44.333 31.324-.902-.959-2.061-1.699-3.421-2.081zm16.973 9.357c13.326-14.961 31.312-25.061 50.643-28.44.298-.052.587-.126.869-.211 3.428 1.251 6.93 2.345 10.497 3.28v4.693c0 7.206 2.282 14.03 6.379 19.634-16.938 3.714-33.161 10.265-48.042 19.436-8.035-3.365-17.666-1.557-23.863 5.236l-16.588 18.185c2.413-15.193 9.332-29.717 20.105-41.813zm147.714-28.98c.69.372 1.447.645 2.262.787.17.03.336.069.506.1l-13.979 27.344c-1.961-.447-3.929-.86-5.908-1.231 3.696-5.449 5.754-11.946 5.754-18.698v-4.696c3.868-1.013 7.66-2.22 11.365-3.606zm4.848 94.367c.203 3.302.806 6.586 1.81 9.777l-28.979 56.686h-39.831l39.689-77.566c10.183 2.278 18.295 5.737 27.311 11.103zm2.172-15.97c-16.266-8.497-34.408-12.961-52.92-12.961-18.521 0-36.636 4.464-52.9 12.957-2.2-6.348-5.956-12.086-11.059-16.741l-4.79-4.369c20.926-11.764 44.526-17.967 68.749-17.967 24.226 0 47.824 6.202 68.749 17.967l-4.79 4.37c-5.196 4.739-8.885 10.523-11.039 16.744zm28.691-31.084c-.048.02-.096.039-.144.059-10.125-6.241-20.867-11.275-32.04-15.017l13.988-27.361c11.222 4.28 21.38 10.946 29.822 19.577zm-62.076-39.01c0 5.969-2.926 11.581-7.826 15.01-.56.392-1.042.851-1.459 1.351-3.403-.223-6.82-.348-10.25-.348-4.951 0-9.875.255-14.765.718-.431-.461-.92-.881-1.479-1.233-5.36-3.379-8.561-9.173-8.561-15.499v-1.786c4.92.625 9.933.948 15.021.948h14.289c5.091 0 10.107-.323 15.03-.949zm-154.566 108.321c-1.224-1.116-1.939-2.642-2.016-4.296-.076-1.654.497-3.239 1.613-4.462l41.185-45.148c1.222-1.339 2.899-2.018 4.583-2.018 1.492 0 2.988.534 4.175 1.616l11.422 10.419c5.1 4.652 8.082 11.011 8.398 17.906.317 6.895-2.07 13.501-6.723 18.6l-14.711 16.127c-9.602 10.528-25.979 11.278-36.506 1.676zm41.165 30.472c.028-.08.046-.161.071-.242 6.611-2.095 12.773-5.896 17.773-11.377l14.711-16.127c6.355-6.967 10.03-15.714 10.588-24.997 15.306-9.103 32.792-13.917 50.723-13.917 2.624 0 5.237.115 7.838.32l-41.236 80.659h-64.271c.91-4.865 2.179-9.657 3.803-14.319zm155.381-27.521 14.506 15.902c4.994 5.475 11.148 9.273 17.749 11.369 1.667 4.743 2.97 9.617 3.897 14.569h-57.541zm43.815-66.966c-2.023-2.219-4.417-3.899-6.998-5.051l5.219-10.208c4.998 7.688 8.737 16.241 10.988 25.355zm-233.645-195.189v31.514c0 4.209.224 8.366.654 12.462-11.143-1.147-19.863-10.589-19.863-22.03 0-11.214 8.382-20.503 19.209-21.946zm-64.798 88.444c0-33.65 13.221-65.14 36.711-88.487v1.595c-3.865 5.859-6.122 12.867-6.122 20.396s2.257 14.537 6.122 20.396v89.969c0 20.16 13.293 38.085 32.462 43.999-8.872 14.644-13.95 31.499-13.95 49.089v5.483l-8.625 9.455c-3.816 4.184-5.775 9.603-5.516 15.26.238 5.175 2.325 9.969 5.88 13.673-4.075 11.211-6.839 22.853-8.24 34.725h-38.722zm53.819 215.551c1.049-8.026 2.788-15.93 5.199-23.632l.376.343c6.805 6.207 15.154 9.673 23.686 10.469-1.192 4.213-2.166 8.492-2.867 12.821h-26.394zm252.194 0c-.701-4.328-1.651-8.612-2.843-12.824 8.523-.8 16.864-4.266 23.661-10.466l.373-.34c2.41 7.701 4.152 15.604 5.203 23.63zm72.43 0h-30.939c-1.402-11.875-4.163-23.521-8.238-34.73 7.639-7.976 7.914-20.649.363-28.928l-14.542-15.941c-.173-17.268-4.788-33.574-12.85-47.729 19.922-5.525 33.651-23.457 33.651-44.355v-16.13c0-4.142-3.357-7.5-7.5-7.5s-7.5 3.358-7.5 7.5v16.13c0 14.593-9.92 27.043-24.123 30.274-1.151.262-2.174.782-3.035 1.477l-.513-.591c-11.273-13.919-26.33-24.728-43.835-30.829 26.475-16.229 46.116-42.557 53.528-73.583 6.566-.237 12.705-2.179 17.979-5.407v34.241c0 4.142 3.357 7.5 7.5 7.5s7.5-3.358 7.5-7.5v-51.781c1.809-4.369 2.813-9.152 2.813-14.167 0-5.021-1.006-9.809-2.819-14.181.001-.04.006-.078.006-.118v-3.317c20.83 22.897 32.556 52.847 32.556 84.113v215.552z"/><path d="m256.354 285.704c12.919 0 23.43-10.511 23.43-23.43 0-4.142-3.358-7.5-7.5-7.5-4.143 0-7.5 3.358-7.5 7.5 0 4.648-3.781 8.43-8.43 8.43-4.648 0-8.431-3.782-8.431-8.43 0-4.142-3.357-7.5-7.5-7.5s-7.5 3.358-7.5 7.5c.001 12.919 10.512 23.43 23.431 23.43z"/><path d="m196.311 213.667 11.392.02c-.47 1.054-.739 2.22-.741 3.451-.008 4.657 3.708 8.438 8.301 8.447 4.592.008 8.322-3.76 8.331-8.417.003-1.838-.581-3.535-1.563-4.922 1.854-1.362 3.065-3.55 3.069-6.028.008-4.143-3.345-7.506-7.486-7.514l-21.275-.038c-.005 0-.009 0-.014 0-4.136 0-7.492 3.349-7.5 7.486-.009 4.143 3.344 7.507 7.486 7.515z"/><path d="m289.479 212.246c-.982 1.387-1.566 3.084-1.563 4.922.008 4.657 3.738 8.425 8.331 8.417s8.309-3.79 8.301-8.447c-.002-1.232-.271-2.398-.741-3.451l11.392-.02c4.142-.007 7.494-3.371 7.486-7.514-.008-4.137-3.364-7.486-7.5-7.486-.004 0-.009 0-.014 0l-21.275.038c-4.142.007-7.494 3.371-7.486 7.514.004 2.476 1.214 4.664 3.069 6.027z"/></g></g></svg>